<svg xmlns="http://www.w3.org/2000/svg" viewBox="-35.75 -35.75 71.5 71.5">
<path d="M 21.92031021678297 -2.121320343559637 L 19.09188309203678 -4.949747468305827 A 2.999999999999999 2.999999999999999 0 0 0 14.8492424049175 -4.949747468305827 L 12.020815280171307 -2.121320343559636 A 2.999999999999999 2.999999999999999 0 0 0 12.020815280171307 2.1213203435596477 L 14.8492424049175 4.949747468305836 A 2.999999999999999 2.999999999999999 0 0 0 19.09188309203678 4.949747468305837 L 21.920310216782973 2.1213203435596477 A 2.999999999999999 2.999999999999999 0 0 0 21.92031021678297 -2.121320343559637 Z" fill="#FFFFFF" stroke="none" />
<path d="M 21.92031021678297 -2.121320343559637 A 2.999999999999999 2.999999999999999 0 0 1 21.920310216782973 2.1213203435596477 L 19.09188309203678 4.949747468305837 A 2.999999999999999 2.999999999999999 0 0 1 14.8492424049175 4.949747468305836 L 12.020815280171307 2.1213203435596477 A 2.999999999999999 2.999999999999999 0 0 1 12.020815280171307 -2.121320343559636 L 14.8492424049175 -4.949747468305827 A 2.999999999999999 2.999999999999999 0 0 1 19.09188309203678 -4.949747468305827 L 21.92031021678297 -2.121320343559637 Z" fill="#FFFFFF" stroke="none" />
<path d="M 13.435028842544401 -10.60660171779821 L 10.60660171779821 -13.435028842544405 A 2.999999999999999 2.999999999999999 0 0 0 6.363961030678931 -13.4350288425444 L 3.535533905932738 -10.60660171779821 A 2.999999999999999 2.999999999999999 0 0 0 3.5355339059327386 -6.363961030678926 L 6.363961030678928 -3.535533905932736 A 2.999999999999999 2.999999999999999 0 0 0 10.606601717798213 -3.535533905932736 L 13.435028842544401 -6.363961030678926 A 2.999999999999999 2.999999999999999 0 0 0 13.435028842544401 -10.60660171779821 Z" fill="#FFFFFF" stroke="none" />
<path d="M 13.435028842544401 -10.60660171779821 A 2.999999999999999 2.999999999999999 0 0 1 13.435028842544401 -6.363961030678926 L 10.606601717798213 -3.535533905932736 A 2.999999999999999 2.999999999999999 0 0 1 6.363961030678928 -3.535533905932736 L 3.5355339059327386 -6.363961030678926 A 2.999999999999999 2.999999999999999 0 0 1 3.535533905932738 -10.60660171779821 L 6.363961030678931 -13.4350288425444 A 2.999999999999999 2.999999999999999 0 0 1 10.60660171779821 -13.435028842544405 L 13.435028842544401 -10.60660171779821 Z" fill="#FFFFFF" stroke="none" />
<path d="M 4.949747468305835 -19.091883092036785 L 2.1213203435596486 -21.920310216782973 A 2.999999999999999 2.999999999999999 0 0 0 -2.121320343559636 -21.92031021678298 L -4.949747468305821 -19.091883092036785 A 2.999999999999999 2.999999999999999 0 0 0 -4.9497474683058265 -14.849242404917497 L -2.121320343559637 -12.02081528017131 A 2.999999999999999 2.999999999999999 0 0 0 2.121320343559649 -12.020815280171307 L 4.949747468305839 -14.849242404917497 A 2.999999999999999 2.999999999999999 0 0 0 4.949747468305835 -19.091883092036785 Z" fill="#FFFFFF" stroke="none" />
<path d="M 4.949747468305835 -19.091883092036785 A 2.999999999999999 2.999999999999999 0 0 1 4.949747468305839 -14.849242404917497 L 2.121320343559649 -12.020815280171307 A 2.999999999999999 2.999999999999999 0 0 1 -2.121320343559637 -12.02081528017131 L -4.9497474683058265 -14.849242404917497 A 2.999999999999999 2.999999999999999 0 0 1 -4.949747468305821 -19.091883092036785 L -2.121320343559636 -21.92031021678298 A 2.999999999999999 2.999999999999999 0 0 1 2.1213203435596486 -21.920310216782973 L 4.949747468305835 -19.091883092036785 Z" fill="#FFFFFF" stroke="none" />
<path d="M 13.435028842544401 6.363961030678931 L 10.606601717798206 3.535533905932741 A 2.999999999999999 2.999999999999999 0 0 0 6.363961030678923 3.53553390593274 L 3.535533905932732 6.363961030678931 A 2.999999999999999 2.999999999999999 0 0 0 3.5355339059327324 10.606601717798215 L 6.36396103067892 13.4350288425444 A 2.999999999999999 2.999999999999999 0 0 0 10.606601717798206 13.435028842544401 L 13.4350288425444 10.606601717798217 A 2.999999999999999 2.999999999999999 0 0 0 13.435028842544401 6.363961030678931 Z" fill="#FFFFFF" stroke="none" />
<path d="M 13.435028842544401 6.363961030678931 A 2.999999999999999 2.999999999999999 0 0 1 13.4350288425444 10.606601717798217 L 10.606601717798206 13.435028842544401 A 2.999999999999999 2.999999999999999 0 0 1 6.36396103067892 13.4350288425444 L 3.5355339059327324 10.606601717798215 A 2.999999999999999 2.999999999999999 0 0 1 3.535533905932732 6.363961030678931 L 6.363961030678923 3.53553390593274 A 2.999999999999999 2.999999999999999 0 0 1 10.606601717798206 3.535533905932741 L 13.435028842544401 6.363961030678931 Z" fill="#FFFFFF" stroke="none" />
<path d="M -3.535533905932741 10.60660171779821 A 2.999999999999999 2.999999999999999 0 0 0 -3.53553390593274 6.363961030678925 L -6.36396103067893 3.535533905932735 A 2.999999999999999 2.999999999999999 0 0 0 -10.606601717798215 3.535533905932737 L -13.435028842544401 6.363961030678926 A 2.999999999999999 2.999999999999999 0 0 0 -13.435028842544401 10.60660171779821 L -10.606601717798215 13.435028842544401 A 2.999999999999999 2.999999999999999 0 0 0 -6.36396103067893 13.4350288425444 L -3.535533905932741 10.60660171779821 Z" fill="#FFFFFF" stroke="none" />
<path d="M -3.535533905932741 10.60660171779821 L -6.36396103067893 13.4350288425444 A 2.999999999999999 2.999999999999999 0 0 1 -10.606601717798215 13.435028842544401 L -13.435028842544401 10.60660171779821 A 2.999999999999999 2.999999999999999 0 0 1 -13.435028842544401 6.363961030678926 L -10.606601717798215 3.535533905932737 A 2.999999999999999 2.999999999999999 0 0 1 -6.36396103067893 3.535533905932735 L -3.53553390593274 6.363961030678925 A 2.999999999999999 2.999999999999999 0 0 1 -3.535533905932741 10.60660171779821 Z" fill="#FFFFFF" stroke="none" />
<path d="M -21.920310216782973 2.121320343559637 A 2.999999999999999 2.999999999999999 0 0 1 -21.920310216782973 -2.121320343559647 L -19.09188309203678 -4.949747468305837 A 2.999999999999999 2.999999999999999 0 0 1 -14.849242404917497 -4.949747468305837 L -12.02081528017131 -2.121320343559648 A 2.999999999999999 2.999999999999999 0 0 1 -12.02081528017131 2.121320343559638 L -14.849242404917497 4.9497474683058265 A 2.999999999999999 2.999999999999999 0 0 1 -19.09188309203678 4.9497474683058265 L -21.920310216782973 2.121320343559637 Z" fill="#FFFFFF" stroke="none" />
<path d="M -21.920310216782973 2.121320343559637 L -19.09188309203678 4.9497474683058265 A 2.999999999999999 2.999999999999999 0 0 0 -14.849242404917497 4.9497474683058265 L -12.02081528017131 2.121320343559638 A 2.999999999999999 2.999999999999999 0 0 0 -12.02081528017131 -2.121320343559648 L -14.849242404917497 -4.949747468305837 A 2.999999999999999 2.999999999999999 0 0 0 -19.09188309203678 -4.949747468305837 L -21.920310216782973 -2.121320343559647 A 2.999999999999999 2.999999999999999 0 0 0 -21.920310216782973 2.121320343559637 Z" fill="#FFFFFF" stroke="none" />
<path d="M -3.535533905932734 -6.363961030678929 A 2.999999999999999 2.999999999999999 0 0 0 -3.535533905932733 -10.60660171779822 L -6.363961030678924 -13.43502884254441 A 2.999999999999999 2.999999999999999 0 0 0 -10.606601717798208 -13.435028842544401 L -13.4350288425444 -10.60660171779822 A 2.999999999999999 2.999999999999999 0 0 0 -13.4350288425444 -6.363961030678931 L -10.606601717798213 -3.535533905932745 A 2.999999999999999 2.999999999999999 0 0 0 -6.363961030678923 -3.53553390593274 L -3.535533905932734 -6.363961030678929 Z" fill="#FFFFFF" stroke="none" />
<path d="M -3.535533905932734 -6.363961030678929 L -6.363961030678923 -3.53553390593274 A 2.999999999999999 2.999999999999999 0 0 1 -10.606601717798213 -3.535533905932745 L -13.4350288425444 -6.363961030678931 A 2.999999999999999 2.999999999999999 0 0 1 -13.4350288425444 -10.60660171779822 L -10.606601717798208 -13.435028842544401 A 2.999999999999999 2.999999999999999 0 0 1 -6.363961030678924 -13.43502884254441 L -3.535533905932733 -10.60660171779822 A 2.999999999999999 2.999999999999999 0 0 1 -3.535533905932734 -6.363961030678929 Z" fill="#FFFFFF" stroke="none" />
<path d="M 4.949747468305826 14.849242404917497 L 2.1213203435596344 12.020815280171307 A 2.999999999999999 2.999999999999999 0 0 0 -2.121320343559647 12.02081528017131 L -4.949747468305838 14.8492424049175 A 2.999999999999999 2.999999999999999 0 0 0 -4.94974746830584 19.09188309203678 L -2.121320343559649 21.920310216782973 A 2.999999999999999 2.999999999999999 0 0 0 2.121320343559635 21.920310216782973 L 4.9497474683058265 19.09188309203678 A 2.999999999999999 2.999999999999999 0 0 0 4.949747468305826 14.849242404917497 Z" fill="#FFFFFF" stroke="none" />
<path d="M 4.949747468305826 14.849242404917497 A 2.999999999999999 2.999999999999999 0 0 1 4.9497474683058265 19.09188309203678 L 2.121320343559635 21.920310216782973 A 2.999999999999999 2.999999999999999 0 0 1 -2.121320343559649 21.920310216782973 L -4.94974746830584 19.09188309203678 A 2.999999999999999 2.999999999999999 0 0 1 -4.949747468305838 14.8492424049175 L -2.121320343559647 12.02081528017131 A 2.999999999999999 2.999999999999999 0 0 1 2.1213203435596344 12.020815280171307 L 4.949747468305826 14.849242404917497 Z" fill="#FFFFFF" stroke="none" />
<path d="M 4.949747468305834 -2.121320343559643 L 2.121320343559643 -4.949747468305833 A 2.999999999999999 2.999999999999999 0 0 0 -2.1213203435596424 -4.949747468305831 L -4.949747468305833 -2.121320343559641 A 2.999999999999999 2.999999999999999 0 0 0 -4.949747468305836 2.12132034355964 L -2.121320343559642 4.949747468305832 A 2.999999999999999 2.999999999999999 0 0 0 2.121320343559643 4.949747468305833 L 4.949747468305833 2.121320343559643 A 2.999999999999999 2.999999999999999 0 0 0 4.949747468305834 -2.121320343559643 Z" fill="#FFFFFF" stroke="none" />
<path d="M 4.949747468305834 -2.121320343559643 A 2.999999999999999 2.999999999999999 0 0 1 4.949747468305833 2.121320343559643 L 2.121320343559643 4.949747468305833 A 2.999999999999999 2.999999999999999 0 0 1 -2.121320343559642 4.949747468305832 L -4.949747468305836 2.12132034355964 A 2.999999999999999 2.999999999999999 0 0 1 -4.949747468305833 -2.121320343559641 L -2.1213203435596424 -4.949747468305831 A 2.999999999999999 2.999999999999999 0 0 1 2.121320343559643 -4.949747468305833 L 4.949747468305834 -2.121320343559643 Z" fill="#FFFFFF" stroke="none" />
</svg>